<?xml version="1.0" encoding="UTF-8"?>
<svg id="Layer_1" data-name="Layer 1" xmlns="http://www.w3.org/2000/svg" viewBox="0 0 375.72 610.47">
  <defs>
    <style>
      .cls-1 {
        fill: #c2f970;
      }
    </style>
  </defs>
  <g id="ICON">
    <path class="cls-1" d="M253.07.44L5.07,87.42c-3.04,1.06-5.07,3.93-5.07,7.15v421.32c0,3.23,2.03,6.1,5.07,7.15l248,86.99c4.93,1.74,10.1-1.92,10.1-7.15V7.59c0-5.23-5.17-8.89-10.1-7.15ZM228.37,556.35l-193.56-67.91V122.02L228.37,54.12v502.23Z"/>
    <path class="cls-1" d="M303.29,21.45l20.13,18.63c1.44.68,2.36,2.13,2.36,3.73v522.84c0,1.6-.92,3.05-2.36,3.73l-20.13,18.64c-4.59,1.61-9.4-1.8-9.4-6.66V28.12c0-4.87,4.81-8.28,9.4-6.66Z"/>
    <path class="cls-1" d="M357.06,69.85l16.7,15.46c1.2.56,1.96,1.77,1.96,3.09v433.67c0,1.32-.76,2.53-1.96,3.09l-16.7,15.46c-3.81,1.34-7.8-1.49-7.8-5.53V75.38c0-4.04,3.99-6.86,7.8-5.53Z"/>
  </g>
</svg>