<?xml version="1.0" encoding="UTF-8"?>
<svg width="120" id="Layer_1" data-name="Layer 1" xmlns="http://www.w3.org/2000/svg" viewBox="0 0 1466 610.47">
  <defs>
    <style>
      .cls-1 {
        fill: #c2f970;
      }

      .cls-2 {
        fill: #f2f2f2;
      }
    </style>
  </defs>
  <g id="ICON">
    <path class="cls-1" d="M253.07.44L5.07,87.42c-3.04,1.06-5.07,3.93-5.07,7.15v421.32c0,3.23,2.03,6.1,5.07,7.15l248,86.99c4.93,1.74,10.1-1.92,10.1-7.15V7.59c0-5.23-5.17-8.89-10.1-7.15ZM228.37,556.35l-193.56-67.91V122.02L228.37,54.12v502.23Z"/>
    <path class="cls-1" d="M303.29,21.45l20.13,18.63c1.44.68,2.36,2.13,2.36,3.73v522.84c0,1.6-.92,3.05-2.36,3.73l-20.13,18.64c-4.59,1.61-9.4-1.8-9.4-6.66V28.12c0-4.87,4.81-8.28,9.4-6.66Z"/>
    <path class="cls-1" d="M357.06,69.85l16.7,15.46c1.2.56,1.96,1.77,1.96,3.09v433.67c0,1.32-.76,2.53-1.96,3.09l-16.7,15.46c-3.81,1.34-7.8-1.49-7.8-5.53V75.38c0-4.04,3.99-6.86,7.8-5.53Z"/>
  </g>
  <g>
    <path class="cls-2" d="M511.51,397.5v-203.56c0-4.96,2.79-7.76,7.76-7.76h27.62c4.97,0,7.76,2.79,7.76,7.76v170.05h126.92c4.97,0,7.76,2.79,7.76,7.76v25.75c0,4.97-2.79,7.76-7.76,7.76h-162.29c-4.96,0-7.76-2.79-7.76-7.76Z"/>
    <path class="cls-2" d="M712.58,397.5v-203.56c0-4.96,2.79-7.76,7.76-7.76h27.31c4.97,0,7.76,2.79,7.76,7.76v203.56c0,4.97-2.79,7.76-7.76,7.76h-27.31c-4.96,0-7.76-2.79-7.76-7.76Z"/>
    <path class="cls-2" d="M794.5,397.5v-203.56c0-4.96,2.79-7.76,7.76-7.76h27.93c4.03,0,7.14,1.55,9.62,4.66l120.4,149.57v-146.47c0-4.96,2.79-7.76,7.76-7.76h27.62c4.97,0,7.76,2.79,7.76,7.76v203.56c0,4.97-2.79,7.76-7.76,7.76h-27.93c-4.03,0-7.14-1.55-9.62-4.66l-120.4-148.64v145.53c0,4.97-2.79,7.76-7.76,7.76h-27.62c-4.96,0-7.76-2.79-7.76-7.76Z"/>
    <path class="cls-2" d="M1042.43,397.5v-203.56c0-4.96,2.79-7.76,7.76-7.76h27.62c4.97,0,7.76,2.79,7.76,7.76v83.16h40.96l72.61-86.58c2.48-3.1,5.59-4.34,9.62-4.34h33.82c6.52,0,8.69,4.34,4.34,9.62l-84.41,99.61,84.41,100.23c4.34,5.27,2.17,9.62-4.34,9.62h-33.82c-4.04,0-7.14-1.24-9.62-4.34l-72.61-85.34h-40.96v81.92c0,4.97-2.79,7.76-7.76,7.76h-27.62c-4.96,0-7.76-2.79-7.76-7.76Z"/>
    <path class="cls-2" d="M1257.16,339.47c-.31-5.27,2.48-8.07,7.45-8.07h27.62c4.96,0,7.45,2.79,7.76,7.76,1.86,18,10.24,24.82,30.41,24.82h60.82c23.58,0,31.96-5.89,31.96-23.89s-8.07-22.03-28.86-23.58l-69.2-5.28c-47.79-3.72-66.72-19.24-66.72-60.2s20.17-64.86,74.16-64.86h56.79c49.03,0,71.06,22.03,73.23,65.79.31,5.27-2.48,8.07-7.45,8.07h-27.93c-4.96,0-7.45-2.79-7.76-7.76-1.86-18-10.24-24.82-30.1-24.82h-56.17c-23.89,0-32.27,5.59-32.27,23.89,0,17.07,8.07,21.41,28.86,22.96l69.2,5.28c47.17,3.72,67.03,20.17,67.03,60.82s-20.17,64.85-74.47,64.85h-61.13c-49.34,0-71.06-22.03-73.23-65.79Z"/>
  </g>
  <g>
    <path class="cls-2" d="M515.59,470.64v-35.27c0-.86.48-1.34,1.34-1.34h4.79c.86,0,1.34.48,1.34,1.34v29.46h21.99c.86,0,1.34.48,1.34,1.34v4.46c0,.86-.49,1.34-1.34,1.34h-28.12c-.86,0-1.34-.48-1.34-1.34Z"/>
    <path class="cls-2" d="M549.41,458.91v-11.77c0-8.07,3.82-13.12,12.74-13.12h13.82c8.93,0,12.75,5.05,12.75,13.12v11.77c0,8.01-3.82,13.07-12.75,13.07h-13.82c-8.93,0-12.74-5.06-12.74-13.07ZM575.98,464.83c3.61,0,5.27-1.02,5.27-5.64v-12.32c0-4.68-1.51-5.7-5.27-5.7h-13.82c-3.71,0-5.27,1.02-5.27,5.7v12.32c0,4.62,1.67,5.64,5.27,5.64h13.82Z"/>
    <path class="cls-2" d="M593.67,458.91v-11.77c0-8.07,3.82-13.12,12.74-13.12h12.37c8.39,0,12.26,4.19,12.69,11.4.05.91-.43,1.4-1.29,1.4h-4.84c-.86,0-1.29-.49-1.34-1.34-.32-3.5-1.88-4.3-5.22-4.3h-12.37c-3.71,0-5.27,1.02-5.27,5.7v12.32c0,4.62,1.67,5.64,5.27,5.64h12.37c3.6,0,5.27-1.02,5.27-5.64v-1.83h-9.25c-.86,0-1.34-.48-1.34-1.34v-3.87c0-.86.49-1.34,1.34-1.34h15.38c.86,0,1.34.48,1.34,1.34v6.77c0,8.01-3.82,13.07-12.74,13.07h-12.37c-8.92,0-12.74-5.06-12.74-13.07Z"/>
    <path class="cls-2" d="M637.6,470.64v-35.27c0-.86.48-1.34,1.34-1.34h4.73c.86,0,1.34.48,1.34,1.34v35.27c0,.86-.48,1.34-1.34,1.34h-4.73c-.86,0-1.34-.48-1.34-1.34Z"/>
    <path class="cls-2" d="M650.83,460.58c-.05-.91.43-1.4,1.29-1.4h4.79c.86,0,1.29.48,1.34,1.34.32,3.12,1.77,4.3,5.27,4.3h10.54c4.09,0,5.54-1.02,5.54-4.14s-1.4-3.82-5-4.09l-11.99-.91c-8.28-.64-11.56-3.33-11.56-10.43s3.49-11.24,12.85-11.24h9.84c8.5,0,12.32,3.82,12.69,11.4.05.91-.43,1.4-1.29,1.4h-4.84c-.86,0-1.29-.49-1.34-1.34-.32-3.12-1.77-4.3-5.22-4.3h-9.73c-4.14,0-5.59.97-5.59,4.14,0,2.96,1.4,3.71,5,3.98l11.99.91c8.17.65,11.62,3.5,11.62,10.54s-3.49,11.24-12.9,11.24h-10.59c-8.55,0-12.31-3.82-12.69-11.4Z"/>
    <path class="cls-2" d="M702.77,470.64v-29.41h-11.62c-.86,0-1.34-.49-1.34-1.34v-4.52c0-.86.48-1.34,1.34-1.34h30.7c.86,0,1.34.48,1.34,1.34v4.52c0,.86-.48,1.34-1.34,1.34h-11.61v29.41c0,.86-.49,1.34-1.34,1.34h-4.79c-.86,0-1.34-.48-1.34-1.34Z"/>
    <path class="cls-2" d="M727.5,470.64v-35.27c0-.86.48-1.34,1.34-1.34h4.73c.86,0,1.34.48,1.34,1.34v35.27c0,.86-.48,1.34-1.34,1.34h-4.73c-.86,0-1.34-.48-1.34-1.34Z"/>
    <path class="cls-2" d="M741,458.91v-11.77c0-8.07,3.82-13.12,12.74-13.12h11.99c8.93,0,12.74,5.05,12.74,13.12v.16c0,.86-.48,1.34-1.34,1.34h-4.79c-.86,0-1.34-.37-1.34-.91v-.86c0-4.68-1.56-5.7-5.27-5.7h-11.99c-3.71,0-5.27,1.02-5.27,5.7v12.32c0,4.62,1.67,5.64,5.27,5.64h11.99c3.6,0,5.27-1.02,5.27-5.64v-1.02c0-.86.48-1.34,1.34-1.34h4.79c.86,0,1.34.37,1.34,1.02v1.07c0,8.01-3.82,13.07-12.74,13.07h-11.99c-8.93,0-12.74-5.06-12.74-13.07Z"/>
    <path class="cls-2" d="M783.05,460.58c-.05-.91.43-1.4,1.29-1.4h4.79c.86,0,1.29.48,1.34,1.34.32,3.12,1.77,4.3,5.27,4.3h10.54c4.09,0,5.54-1.02,5.54-4.14s-1.4-3.82-5-4.09l-11.99-.91c-8.28-.64-11.56-3.33-11.56-10.43s3.49-11.24,12.85-11.24h9.84c8.5,0,12.32,3.82,12.69,11.4.05.91-.43,1.4-1.29,1.4h-4.84c-.86,0-1.29-.49-1.34-1.34-.32-3.12-1.77-4.3-5.22-4.3h-9.73c-4.14,0-5.59.97-5.59,4.14,0,2.96,1.4,3.71,5,3.98l11.99.91c8.17.65,11.62,3.5,11.62,10.54s-3.49,11.24-12.9,11.24h-10.59c-8.55,0-12.31-3.82-12.69-11.4Z"/>
    <path class="cls-2" d="M870.64,470.96l-2.53-5.54h-21.72l-2.58,5.54c-.32.65-.86,1.02-1.61,1.02h-5.43c-1.02,0-1.45-.65-1.02-1.56l17.1-35.44c.32-.64.81-.97,1.56-.97h5.7c.75,0,1.24.32,1.56.97l17.05,35.44c.43.91,0,1.56-1.02,1.56h-5.43c-.75,0-1.29-.32-1.61-1.02ZM865.32,459.29l-8.01-17.48-8.12,17.48h16.13Z"/>
    <path class="cls-2" d="M882.85,470.64v-35.27c0-.86.48-1.34,1.34-1.34h4.84c.7,0,1.24.27,1.67.81l20.87,25.92v-25.38c0-.86.48-1.34,1.34-1.34h4.79c.86,0,1.34.48,1.34,1.34v35.27c0,.86-.48,1.34-1.34,1.34h-4.84c-.7,0-1.24-.27-1.67-.81l-20.86-25.75v25.22c0,.86-.49,1.34-1.34,1.34h-4.79c-.86,0-1.34-.48-1.34-1.34Z"/>
    <path class="cls-2" d="M925.81,470.64v-35.27c0-.86.48-1.34,1.34-1.34h23.07c8.87,0,12.69,4.73,12.69,14.25v9.68c0,9.47-3.82,14.04-12.69,14.04h-23.07c-.86,0-1.34-.48-1.34-1.34ZM949.36,464.88c4.09,0,6.18-1.13,6.18-7.04v-9.52c0-5.91-1.99-7.15-6.18-7.15h-16.08v23.71h16.08Z"/>
    <path class="cls-2" d="M981.46,460.58c-.05-.91.43-1.4,1.29-1.4h4.79c.86,0,1.29.48,1.34,1.34.32,3.12,1.77,4.3,5.27,4.3h10.54c4.09,0,5.54-1.02,5.54-4.14s-1.4-3.82-5-4.09l-11.99-.91c-8.28-.64-11.56-3.33-11.56-10.43s3.49-11.24,12.85-11.24h9.84c8.5,0,12.32,3.82,12.69,11.4.05.91-.43,1.4-1.29,1.4h-4.84c-.86,0-1.29-.49-1.34-1.34-.32-3.12-1.77-4.3-5.22-4.3h-9.73c-4.14,0-5.59.97-5.59,4.14,0,2.96,1.4,3.71,5,3.98l11.99.91c8.17.65,11.62,3.5,11.62,10.54s-3.49,11.24-12.9,11.24h-10.59c-8.55,0-12.31-3.82-12.69-11.4Z"/>
    <path class="cls-2" d="M1023.35,470.64v-35.27c0-.86.48-1.34,1.34-1.34h29.41c.86,0,1.34.48,1.34,1.34v4.46c0,.86-.48,1.34-1.34,1.34h-23.34v8.28h15.11c.86,0,1.34.48,1.34,1.34v3.92c0,.86-.48,1.34-1.34,1.34h-15.11v8.77h23.34c.86,0,1.34.48,1.34,1.34v4.46c0,.86-.48,1.34-1.34,1.34h-29.41c-.86,0-1.34-.48-1.34-1.34Z"/>
    <path class="cls-2" d="M1089.06,461.28l6.4,9.09c.64.92.22,1.61-.86,1.61h-5.59c-.7,0-1.24-.27-1.61-.86l-5.86-9.09h-13.23v8.6c0,.86-.49,1.34-1.34,1.34h-4.79c-.86,0-1.34-.48-1.34-1.34v-35.27c0-.86.48-1.34,1.34-1.34h19.52c11.02,0,15.22,4.62,15.22,13.71v.81c0,6.56-2.1,11.02-7.85,12.74ZM1089.38,447.79c0-5.59-2.42-6.62-8.28-6.62h-12.8v13.77h12.8c5.76,0,8.28-.97,8.28-6.45v-.7Z"/>
    <path class="cls-2" d="M1114.92,470.96l-15.92-35.38c-.43-.97,0-1.56,1.02-1.56h5.16c.75,0,1.24.32,1.56,1.02l13.07,29.09,12.9-29.09c.32-.7.81-1.02,1.56-1.02h5.16c1.02,0,1.45.59,1.02,1.56l-15.86,35.38c-.32.7-.81,1.02-1.56,1.02h-6.56c-.75,0-1.24-.32-1.56-1.02Z"/>
    <path class="cls-2" d="M1144.55,470.64v-35.27c0-.86.48-1.34,1.34-1.34h4.73c.86,0,1.34.48,1.34,1.34v35.27c0,.86-.48,1.34-1.34,1.34h-4.73c-.86,0-1.34-.48-1.34-1.34Z"/>
    <path class="cls-2" d="M1158.04,458.91v-11.77c0-8.07,3.82-13.12,12.74-13.12h11.99c8.93,0,12.74,5.05,12.74,13.12v.16c0,.86-.48,1.34-1.34,1.34h-4.79c-.86,0-1.34-.37-1.34-.91v-.86c0-4.68-1.56-5.7-5.27-5.7h-11.99c-3.71,0-5.27,1.02-5.27,5.7v12.32c0,4.62,1.67,5.64,5.27,5.64h11.99c3.6,0,5.27-1.02,5.27-5.64v-1.02c0-.86.49-1.34,1.34-1.34h4.79c.86,0,1.34.37,1.34,1.02v1.07c0,8.01-3.82,13.07-12.74,13.07h-11.99c-8.93,0-12.74-5.06-12.74-13.07Z"/>
    <path class="cls-2" d="M1201.06,470.64v-35.27c0-.86.48-1.34,1.34-1.34h29.41c.86,0,1.34.48,1.34,1.34v4.46c0,.86-.48,1.34-1.34,1.34h-23.34v8.28h15.11c.86,0,1.34.48,1.34,1.34v3.92c0,.86-.48,1.34-1.34,1.34h-15.11v8.77h23.34c.86,0,1.34.48,1.34,1.34v4.46c0,.86-.48,1.34-1.34,1.34h-29.41c-.86,0-1.34-.48-1.34-1.34Z"/>
    <path class="cls-2" d="M1236.71,460.58c-.05-.91.43-1.4,1.29-1.4h4.79c.86,0,1.29.48,1.34,1.34.32,3.12,1.77,4.3,5.27,4.3h10.54c4.09,0,5.54-1.02,5.54-4.14s-1.4-3.82-5-4.09l-11.99-.91c-8.28-.64-11.56-3.33-11.56-10.43s3.49-11.24,12.85-11.24h9.84c8.5,0,12.32,3.82,12.69,11.4.05.91-.43,1.4-1.29,1.4h-4.84c-.86,0-1.29-.49-1.34-1.34-.32-3.12-1.77-4.3-5.22-4.3h-9.73c-4.14,0-5.59.97-5.59,4.14,0,2.96,1.4,3.71,5,3.98l11.99.91c8.17.65,11.62,3.5,11.62,10.54s-3.49,11.24-12.9,11.24h-10.59c-8.55,0-12.31-3.82-12.69-11.4Z"/>
  </g>
</svg>
